<svg id="LOGOTIPO_FINAL" data-name="LOGOTIPO FINAL" xmlns="http://www.w3.org/2000/svg" viewBox="0 0 500 500"><defs><style>.cls-1{fill:#fedfe3;}.cls-2,.cls-4{opacity:0.59;}.cls-3,.cls-6{fill:#666;}.cls-4{fill:none;stroke:#666;stroke-miterlimit:10;stroke-width:1.5px;}.cls-5{opacity:0.75;}.cls-6{font-size:71.36px;font-family:Bollent-Regular, Bollent;}</style></defs><g id="FINAL_GRIS_Y_ROSA" data-name="FINAL GRIS Y ROSA"><circle class="cls-1" cx="250" cy="250" r="219.57"/><g class="cls-2"><path class="cls-3" d="M69.21,204.47C66.57,211,64.27,217.71,62,224.4c-3.59,9-7.8,18.7-4.7,28.44,1.49,4.84,3.13,9.87,6.37,13.85A49.24,49.24,0,0,1,71,279.37a43.34,43.34,0,0,1,1.11,6.1v-.07a106.14,106.14,0,0,0,4.56,18l0,.07,0-.05c2.4,9.44,7.42,17.89,12,26.39h0c-4.36-3.68-9.73-6.7-13.26-11.18-4.35-10-7-20.63-11.68-30.49l.06.11c-2.25-4.83-4.14-9.81-6.92-14.38a.35.35,0,0,0,0,.08c-3.72-6.53-9.73-11.45-15.88-15.52h0l-.05,0h0c-.15,0-.21.21-.07.26h0a.33.33,0,0,1,.1.06A18.59,18.59,0,0,1,43.29,262a60.3,60.3,0,0,1,8.11,23.5c1.29,7.92,2.4,16,6.87,22.89,2.08,4.67,4.61,9.48,9.09,12.25,6.59,3.94,14.53,5,20.66,9.91l-.11-.08c3.86,2.76,5.55,7.49,8.37,11.19l-.06-.09c1.21,1.57,2.38,3.16,3.57,4.75l0-.05a3.64,3.64,0,0,0,.46.5l0,0,.19.16-.12-.1c.39.48,1.33.59,1.41-.18-.22-1.56-2-2.75-2.64-4.23-6.94-8.73-12.09-18.63-16.94-28.63a1,1,0,0,1,0,.1l-.06-.13v0c-1.85-4.39-4.06-8.94-4.4-13.73a.17.17,0,0,1,0,.07c-.45-5.32-1-10.72.13-16h0l0-.13v.05a1.7,1.7,0,0,1,0-.22l0,.14c.21-1,.44-2,.72-3v0a1.11,1.11,0,0,1,.07-.16l0,.07.12-.28h0l0-.05c1.58-4.59,5.74-6.79,9.55-9.22,6.83-4.4,7.12-12.45,8.54-19.7h0v-.08h0v-.08c.63-4.25.58-8.58.9-12.86.5-3.41,1.68-6.23-1.17-1.1,0,0,0,0,0,0-2.11,4-6,6.7-8.37,10.51-1.54,2.39-2.16,5.18-2.94,7.87-1,2.5-2.28,4.9-2.66,7.59,0,0,0,0,0-.07v.05a.51.51,0,0,1,0,.13v0s0,.09,0,.13v0C80.5,275,74,283.26,75.82,295.58c-3.59-13.33-4.32-27.24-3.72-41,.48-3.7.22-13.44,3.45-15.28l-.07.05.14-.09-.06,0,.67-.42-.14.09a36.13,36.13,0,0,1,4-2.26c3.15-1,5.89-2.75,8.72-4.38l0,0,0,0h0l.1-.07h0c12.54-7.91,8.5-19,15.64-28.93.6-1.37-2.34.85-2.78,1.07-6.09,4.67-11.44,9.63-14.51,16.82-3,6.38-8.08,11.19-12.61,16.44,1.93-9.2,4.88-18.19,10.84-25.6h0l.18-.2c4.35-3.95,5.17-9.9,8.06-14.75a34.62,34.62,0,0,1,7.6-8c2.13-1.09,4.39-2.23,5.89-4.13l0,0h0l.21-.33h0l.09-.14v0c1.38-2.47-.58-.12-1.34.23l0,0-.31.16,0,0a5.09,5.09,0,0,1-.91.44l.07,0-.41.14h0c-.93.32-1.89.52-2.8.89l.08,0c-.72.26-1.42.55-2.15.8h0c-10.11,2.61-16.68,14.49-18.59,24.15-.11.59-.22,1.19-.34,1.79a33.28,33.28,0,0,1-1.62,5.8l0-.05,0,.09c-8.21,18.19-9.88,38.79-8,58.51-1.24-3.25-3-6.27-3.86-9.69-.48-1.95,0-4-.32-5.94-.36-1.67-1.14-3.24-1.37-4.95h0a11.24,11.24,0,0,1,.46-4.17c1.55-5.21,4-10.1,5.38-15.38v0l0-.16v0c1.11-6.64.5-13.39-.71-20-.36-2.16-1.15-4.25-1.4-6.43-.12-2,.33-4.07,0-6.08v0c0-.07,0-.13,0-.2v0h0c0-.14,0-.32-.15-.35S69.25,204.35,69.21,204.47Zm10.25,30.88h0l.17-.05-.13,0Zm15.63,5.55A67.69,67.69,0,0,1,91,250.77l.06-.13c-2.09,4.41-4.6,8.59-6.94,12.87-.5.92-1,1.85-1.5,2.77v0a.13.13,0,0,1,0,.06c.15-.72.26-1.44.41-2.16,0,0,0,0,0,.06l0-.11c.36-2.92,1.79-5.48,2.81-8.18A22.86,22.86,0,0,1,92.31,244l0-.06,0,0A28.57,28.57,0,0,0,95.09,240.9Zm1.06,1.88v0ZM80.43,274.7a4.55,4.55,0,0,0-.35.4c4.73-12.19,12.76-22.87,16.36-35.54a29.84,29.84,0,0,1-.32,3.4h0v0a79.31,79.31,0,0,1-2.62,16.28c-.56,2.62-1,5.32-2.75,7.46C88.09,270.42,83.62,271.7,80.43,274.7ZM64.34,252.51c.61-13.56,2.31-27.09,3.82-40.58,2,8.91,4,18.43,1.12,27.41C67.77,243.78,65.94,248.11,64.34,252.51Zm3-41c-1.42,7.8-1.66,15.73-2.72,23.58-1.35,10.36-2.49,21,.41,31.16a3.4,3.4,0,0,0,.12.34c-.79-.85-1.52-1.75-2.3-2.61l0,0-.43-.54A41.88,41.88,0,0,1,57,247.52c-.71-10.56,5-20,8.05-29.74l.16-.33C66.06,215.53,66.62,213.46,67.37,211.47Z"/><path class="cls-3" d="M423.22,181.87c-.16,0-.1.23-.43.36h0c.33,0,.33,0,.33,0h0c0,.06,0,.13.67.2v0c-.66,2,.08,4,.25,6,.07,2.2-.4,4.38-.45,6.57-.25,6.69.13,13.45,2.18,19.87v0s0,.1.05.15v0c2.07,5,5.26,9.51,7.54,14.44a11.09,11.09,0,0,1,1.06,4.06h0c0,1.73-.52,3.39-.65,5.1,0,2,.74,3.92.55,5.92-.31,3.5-1.66,6.75-2.42,10.15-1-19.79-5.59-39.93-16.34-56.75l-.06-.08,0,0a32.69,32.69,0,0,1-2.45-5.51c-.2-.57-.4-1.15-.59-1.72-3.28-9.28-11.51-20.09-21.89-21.21h0c-.75-.14-1.49-.33-2.24-.48l.08,0c-.95-.24-1.93-.3-2.89-.48h0l-.44-.08.08,0a5.34,5.34,0,0,1-1-.3l0,0L384,168l0,0c-.8-.24-3.08-2.28-1.35,0l0,0,.11.13h0l.25.29h0l0,0c1.77,1.66,4.17,2.47,6.43,3.24a34.4,34.4,0,0,1,8.68,6.82c3.56,4.39,5.23,10.15,10.11,13.44l.2.17h0c7,6.47,11.19,14.94,14.42,23.76-5.23-4.54-10.95-8.57-14.85-14.44-4.07-6.68-10.09-10.81-16.78-14.55-.47-.16-3.71-1.92-2.9-.65,8.49,8.77,6.09,20.35,19.64,26.37h0l.11,0h0l.05,0-.05,0c3,1.2,6,2.57,9.26,3.08a35.1,35.1,0,0,1,4.31,1.65l-.15-.08.72.33-.06,0,.15.07-.08,0c3.47,1.35,4.61,11,5.62,14.61,2.59,13.51,3.87,27.39,2.25,41.1,0-12.46-7.62-19.74-11.31-30.6v0s0-.08,0-.12v0l-.05-.12v-.05a.25.25,0,0,0,0,.07c-.76-2.62-2.41-4.8-3.73-7.14-1.16-2.55-2.18-5.22-4-7.36-2.94-3.41-7.13-5.51-9.81-9.18l0,0c-3.56-4.66-2-2-1,1.26.94,4.19,1.51,8.48,2.75,12.6l0,.07h0l0,.07h0c2.45,7,3.9,14.89,11.3,18.26,4.11,1.86,8.55,3.43,10.78,7.74l0,.05h0l.16.26,0-.07.09.15,0,0c.42.94.8,1.91,1.15,2.89l0-.14c0,.07,0,.15.08.22l0-.05,0,.13v0c1.9,5,2.11,10.48,2.44,15.8V278c.35,4.79-1.17,9.61-2.37,14.22v0a.74.74,0,0,0,0,.14l0-.1c-3.36,10.6-7,21.13-12.63,30.78-.46,1.56-2,3-2,4.57.19.74,1.1.49,1.42,0l-.11.11.17-.19,0,0a2.63,2.63,0,0,0,.38-.56l0,.05c.95-1.74,1.88-3.48,2.85-5.21a.93.93,0,0,0-.05.1c2.25-4.08,3.24-9,6.67-12.29l-.1.1c5.36-5.7,13.06-7.94,19-12.79,4-3.39,5.85-8.51,7.23-13.44,3.43-7.44,3.35-15.62,3.48-23.64a60.54,60.54,0,0,1,4.63-24.42,18.6,18.6,0,0,1,1.86-3.67l.08-.07h0c.14-.08,0-.3-.1-.25l0,0h0l-.06,0h0c-5.5,4.92-10.74,10.66-13.47,17.66a.36.36,0,0,1,0-.09c-2.1,4.92-3.25,10.13-4.77,15.23l0-.12c-3.21,10.44-4.28,21.37-7.14,31.86-2.79,4.84-7.53,8.56-11.28,12.72l-.26.25c3.32-9.07,7.07-18.16,8.08-27.85v.05s0,0,0-.06a105.85,105.85,0,0,0,1.93-18.43v.08a44.36,44.36,0,0,1,.22-6.21,49.15,49.15,0,0,1,5.39-13.6c2.63-4.4,3.52-9.61,4.3-14.62,1.66-10.09-3.92-19.12-8.76-27.46-3.2-6.3-6.44-12.6-10-18.68C423.41,182,423.37,181.85,423.22,181.87Zm-6,32.37-.14,0,.18,0h0Zm-11.44,10.41,0,0,.06.06A22.86,22.86,0,0,1,414,235.5c1.39,2.53,3.18,4.86,4,7.69,0,0,0,.07,0,.11a.14.14,0,0,1,0-.06c.24.69.46,1.39.71,2.08,0,0,0,0,0-.06l0,.06c-.64-.85-1.26-1.69-1.89-2.54-2.93-3.89-6-7.67-8.72-11.73l.08.12a66.6,66.6,0,0,1-5.51-9.16A29.66,29.66,0,0,0,405.79,224.65Zm-3.94-.63v0Zm8.8,22.89c-2-1.85-2.87-4.47-3.8-7a80.27,80.27,0,0,1-5-15.73v0h0a31.93,31.93,0,0,1-.81-3.31c5.39,12,14.88,21.42,21.33,32.79l-.41-.34C418.42,250.82,413.81,250.2,410.65,246.91Zm17.28-30.18c-4.1-8.47-3.52-18.18-2.85-27.28,3.45,13.13,7.09,26.27,9.64,39.6C432.5,224.92,430.07,220.9,427.93,216.73Zm.91-22.26.21.31c4.45,9.24,11.44,17.71,12.26,28.26a42.06,42.06,0,0,1-3.16,16.55c-.12.2-.24.4-.35.6l0,0c-.64,1-1.24,2-1.89,2.91,0-.11.05-.23.07-.35,1.39-10.51-1.26-20.84-4.1-30.89-2.18-7.61-3.57-15.42-6.1-22.94C426.83,190.74,427.68,192.7,428.84,194.47Z"/></g><path class="cls-4" d="M442.06,227.33c0-97.05-86-176-191.76-176S57.88,130.45,58,233.66"/><g class="cls-5"><text class="cls-6" transform="translate(84.22 366.85) rotate(50.13)">L</text><text class="cls-6" transform="translate(109.19 396.64) rotate(38.59)">U</text><text class="cls-6" transform="translate(148.51 426.67) rotate(25.43)">P</text><text class="cls-6" transform="translate(191.1 445.99) rotate(11.08)">E</text><text class="cls-6" transform="translate(236.91 454.03) rotate(-3.6)">R</text><text class="cls-6" transform="translate(285.48 450.03) rotate(-16.29)">C</text><text class="cls-6" transform="translate(328.82 436.9) rotate(-28.86)">A</text><text class="cls-6" transform="translate(373.01 411.09) rotate(-41.5)">L</text><text class="cls-6" transform="translate(401.39 384.5) rotate(-49.36)">I</text><text class="cls-6" transform="matrix(0.51, -0.86, 0.86, 0.51, 413.01, 372.45)">A</text></g><g class="cls-5"><path class="cls-3" d="M236.94,106.09c.58-1.38.93-2.29,1.33-3.16a17.87,17.87,0,0,1,7.29-8.31,91,91,0,0,0,9.05-6.49c2-1.54,3-1.38,3.88,1s1.64,4.62,2.36,7c1.21,3.9,2.07,7.93,3.57,11.71,1.68,4.24.33,8-.95,11.9-1,2.84-1.05,2.79,1.81,3.94q16,6.48,32,13c4.38,1.79,8.74,3.65,13.1,5.49,2.33,1,2.46,2.08.36,3.64-1.68,1.25-3.45,2.4-5.36,3.72a13,13,0,0,0,1.35,1.22c7.18,5.13,14.16,10.58,21.65,15.23,5.6,3.47,8.8,8.6,12.2,13.79q6.38,9.72,12.83,19.39c1.76,2.65,1.66,3.32-1,5.08-.81.55-1.59,1.16-2.4,1.71-5.16,3.53-4.15,1.89-3.57,8.13,1,10.24,2.43,20.42,3.68,30.63.32,2.63-.24,3.2-2.93,3.09-.25,0-.49,0-.74,0-4.75-.61-4.28-1.15-5.53,4-1.54,6.36-2.82,12.78-4.38,19.13-2.4,9.73-5,19.43-7.42,29.15-.74,2.93-1.34,5.9-2.12,8.81a15.72,15.72,0,0,1-1.38,2.79l-.85-.06c-2.21-4.79-4.43-9.59-6.91-14.94-1.1,2.64-2,4.69-2.82,6.76q-6.56,16.26-13.08,32.52c-.92,2.27-1.94,4.49-2.81,6.78a3.27,3.27,0,0,1-3.77,2.39c-2.51-.28-5-.65-7.55-.78-7.5-.4-6.69-1.1-8.05,5.64-1.6,7.94-3.2,15.87-4.9,23.78-1.24,5.75-2.67,11.46-3.94,17.21-.43,2-.53,4-1,6-.18.74-1,1.34-1.5,2A7.73,7.73,0,0,1,267,397.2c-3.25-6.87-6.44-13.76-9.65-20.65-1-2.2-2.15-4.36-3.09-6.6-.62-1.47-1.68-1.43-2.79-1-2.68,1-5.32,2.12-8,3.2-.61.25-1.19.56-1.81.76-2.76.91-3.25.67-4.54-2Q230.56,357.47,224,344c-1.43-2.93-2.75-5.91-4.33-9.32-1.76,1.58-3.25,2.91-4.73,4.25s-2.85,2.7-4.37,3.93a2.42,2.42,0,0,1-1.94.58,2.22,2.22,0,0,1-.84-1.8c.22-6.7.56-13.4.81-20.09.1-2.69,0-5.39.08-8.09.09-4.65.19-9.3.33-13.95a8.09,8.09,0,0,1,.4-2.66c2.11-5.2,4.3-10.36,6.44-15.55,2.21-5.35,4.57-10.66,6.51-16.12a24.46,24.46,0,0,0,1-7.46c.13-6.71.14-13.43,0-20.14a6.57,6.57,0,0,0-1.54-3.93c-5.09-5.62-10.39-11.05-15.52-16.62a4.09,4.09,0,0,0-4.1-1.49q-14.15,2.46-28.29,4.84c-2.9.48-5.81,1-8.74,1.18a7.4,7.4,0,0,1-3.91-1,81.1,81.1,0,0,1-7.56-5,4,4,0,0,1-1.46-2.38,8.78,8.78,0,0,0-3.84-5.76c-1.9-1.4-3.88-2.68-5.77-4.09-.55-.41-1.31-1.12-1.27-1.64a76.24,76.24,0,0,1,1.06-8,3,3,0,0,1,1.41-1.63c2.7-1.53,5.46-2.93,8.18-4.42,2.07-1.13,4.11-2.32,6.17-3.48l13.67-7.66c2.19-1.23,4.31-2.63,6.6-3.66,3.16-1.43,4.5-3.92,5.33-7.12,1.23-4.73,2.79-9.38,4.28-14a5.34,5.34,0,0,1,1.36-2c4.59-4.42,9.17-8.84,13.82-13.19,5.13-4.8,10.33-9.51,15.45-14.32a2.64,2.64,0,0,0,.67-2,45.52,45.52,0,0,0-1.7-6.64,10.06,10.06,0,0,1,.14-7.4c1.86-4.71,3.6-9.47,5.47-14.17.29-.75,1-1.85,1.55-1.84a3.29,3.29,0,0,1,2.28,1.38c2.78,4.14,5.42,8.37,8.14,12.56A19.68,19.68,0,0,0,236.94,106.09Zm2.7,262.18c8.44-20.78,16.69-41.11,25-61.52l-40.12-11.48Zm34.57-95.79-.5.49c2.42,22,4.85,43.93,7.33,66.42,11.83-15.53,23.22-30.49,34.82-45.74Zm-61.5-107.33c-1.93.65-3.3,1.08-4.63,1.59a27.89,27.89,0,0,1-2.92,1.29c-5.68,1.46-11.34,3-17.09,4.15a11.85,11.85,0,0,0-5.76,2.95c-6.4,5.6-12.61,11.44-19.19,16.83-4.6,3.76-5.78,9-7.7,14.51,3.24-.27,6.06-.46,8.87-.76A75.44,75.44,0,0,0,184.76,201c6.12-2.46,12.44-4.44,18.73-6.43,2.67-.85,3.65-2.73,4.19-5.12,1.06-4.7,2.14-9.41,3.13-14.14C211.47,172.12,212,168.93,212.71,165.15ZM267,311.08c-.36,1-.67,1.71-.83,2.41q-1.86,8.63-3.68,17.25-2.71,12.83-5.4,25.65c-.54,2.56-1.08,5.13-1.43,7.72a7.27,7.27,0,0,0,.27,3.6c1.35,3.33,2.94,6.56,4.44,9.82,1.6,3.49,3.19,7,4.84,10.45.84,1.77,1.78,3.5,2.67,5.24l.59-.15c.2-.77.44-1.53.6-2.31.86-4.4,1.67-8.81,2.56-13.2q2.19-10.8,4.46-21.58c.5-2.39,1.07-4.76,1.63-7.14.84-3.61,1.28-7-.43-10.71-2.55-5.55-4.32-11.45-6.47-17.19C269.6,317.75,268.33,314.59,267,311.08Zm69.88-67.4.34-.77c-12.47-15-24.94-30-37.54-45.19a11.17,11.17,0,0,0-1.16,1.55c-1.09,2.36-2.09,4.77-3.21,7.12-2.34,4.91-4.7,9.82-7.15,14.69-.76,1.51-.64,2.47.79,3.51,4.55,3.3,9,6.73,13.51,10.1,2,1.49,4.26,2.73,6,4.49a6.77,6.77,0,0,0,4.44,2.15c5.43.57,10.85,1.23,16.28,1.79C331.7,243.39,334.28,243.5,336.85,243.68ZM314,289.83l.59-.49-28.94-61.51c-1.13,3.71-2.1,6.83-3,10q-2.56,8.67-5.1,17.36-1.71,5.89-3.38,11.79a2.17,2.17,0,0,0,1.14,2.87c3.12,1.62,6.17,3.36,9.29,5,6.68,3.46,13.37,6.86,20.06,10.28C307.75,286.66,310.88,288.24,314,289.83Zm-70-118c.2.43.23.64.34.71l24.13,14.88a1.84,1.84,0,0,0,2.77-.48c1-1.31,1.87-2.68,2.87-4q5.15-6.58,10.32-13.12c2.42-3.06,4.91-6.07,7.3-9.15s4.5-5.94,7-9.28a17.16,17.16,0,0,0-2.46-.45c-5.56,0-11.12-.08-16.68,0a7.45,7.45,0,0,0-3.4,1.15c-4.54,2.73-9,5.61-13.53,8.35-3.47,2.11-7,4.05-10.51,6.14C249.36,168.28,246.66,170.07,244,171.79ZM312,243.86a23.64,23.64,0,0,0,0,2.62c.66,4.59,1.37,9.18,2.05,13.77,1.12,7.66,2.09,15.35,3.4,23,.71,4.17,0,8.78,3.25,12.29.05.06.05.16.08.23q1.94,5,3.88,10l.67-.08c4.69-19.45,9.37-38.9,14.17-58.86ZM299.71,191.8a11.63,11.63,0,0,0,1.62-.65c1.3-.81,2.57-1.64,3.83-2.51q6.55-4.5,13.09-9c.92-.64,1.75-1.38,2.68-2,2.45-1.61,5-3.11,7.38-4.78,1.45-1,1.38-2.12,0-3.2-1.14-.91-2.28-1.83-3.47-2.67-5.13-3.63-10.29-7.22-15.44-10.83-1.67-1.17-3.4-2.28-5-3.53-1.38-1.08-2.39-.76-3.24.56a32.69,32.69,0,0,1-1.85,3.16c-3.37,4.16-6.86,8.21-10.24,12.36-1.14,1.41-1.85,3-.58,4.79.83,1.2,1.55,2.47,2.27,3.75,2.39,4.27,4.73,8.57,7.17,12.82A9.17,9.17,0,0,0,299.71,191.8Zm48,53.42a9.12,9.12,0,0,0-.05-1c-.62-4.19-1.31-8.36-1.84-12.56-.51-4-.81-8-1.28-11.92-.34-2.83-.94-5.64-1.14-8.47a2.55,2.55,0,0,0-2-2.66c-4.83-1.49-9.63-3.1-14.48-4.53-5.25-1.55-10.54-2.94-15.82-4.41l-6.77-1.9-.34.58c5.43,6.5,10.9,13,16.29,19.49,6.56,7.94,13.15,15.86,19.51,23.95a8.14,8.14,0,0,0,5.51,3.11C346,245,346.72,245.11,347.66,245.22Zm-64.93-18.59-.53-.36c-3.81,1.44-7.61,2.9-11.43,4.32-5.41,2-10.79,4.1-16.26,5.93a4.33,4.33,0,0,0-3.33,3.72c-.65,3.71-1.3,7.42-2.12,11.09a2.6,2.6,0,0,0,1.35,3.23c6.18,3.83,12.31,7.75,18.47,11.61,2,1.22,2.6.88,3.23-1.41,1.48-5.43,2.95-10.87,4.5-16.28,1.26-4.4,2.69-8.75,3.94-13.15C281.37,232.45,282,229.53,282.73,226.63ZM246.08,251c.37-1.84.67-3.31,1-4.78a12.94,12.94,0,0,1,.63-3.09c1.84-3.92,1.3-7.47-.88-11.15-2.82-4.76-5.3-9.72-7.81-14.65a4,4,0,0,0-4-2.56c-7.94.1-15.87,0-23.81,0-.61,0-1.22.13-2.15.23C220.31,228.25,232.17,240.3,246.08,251Zm-3.24-58.63c-.15-1.36-.19-2.43-.4-3.46-.68-3.5-1.66-7-2.08-10.49-.48-4-1.8-6.93-6.2-7.53-.58-.07-1.09-.61-1.71-.53a11.77,11.77,0,0,1-8.72-1.84c-6.4-4.76-7.36-4.23-7.89-1.87s-1.14,4.77-1.72,7.16q-2,8.07-3.89,16.15c-.16.7-.21,1.42-.35,2.41Zm19.27,107,.32-.24c-1.61-4.4-3.2-8.82-4.85-13.21-3.06-8.11-6.16-16.2-9.24-24.3-1.66-4.37-3.48-8.59-7.68-11.28-1.33-.86-2.22-.77-3.16.3-3.22,3.7-6.39,7.44-9.64,11.11a1.86,1.86,0,0,0,.08,3c1.16,1.16,2.25,2.38,3.4,3.55q11.21,11.33,22.42,22.66ZM303.58,193.1l-.16.85c6.05,2.88,12.72,4,19.08,5.94s12.9,3.94,19.69,6c-.19-1.07-.24-1.63-.4-2.16-2.76-9.15-5.55-18.29-8.3-27.45-.72-2.38-1.13-2.64-3.17-1.25-3.55,2.42-6.95,5-10.52,7.44C314.44,186.09,309,189.57,303.58,193.1ZM285,219.34H286c.66-1.62,1.26-3.28,2-4.86,2.69-5.76,5.37-11.53,8.2-17.22a5.08,5.08,0,0,0-.38-5.28c-2.94-5.07-5.89-10.13-8.77-15.23-1.41-2.5-2-2.61-3.76-.44-2.82,3.56-5.59,7.16-8.55,10.61-1.76,2.06-2.39,4.1-1.22,6.62.79,1.7,1.42,3.47,2.19,5.18q3.39,7.6,6.84,15.17C283.33,215.71,284.17,217.52,285,219.34Zm-42.69-6.53,40.52,8.85-13.16-29.07Zm29.18-61.28-.38-.77a19.89,19.89,0,0,0-2.27-.3c-7.12,0-14.24-.06-21.36,0a10.06,10.06,0,0,0-3.79.81c-6.17,2.77-12.33,5.58-18.39,8.56-1.48.73-3.49,1.14-4.06,3.46a3.77,3.77,0,0,0,.6.34c5.6,2.05,11.17,4.19,16.83,6.06a5.2,5.2,0,0,0,3.63-.68c2.58-1.4,5-3.1,7.5-4.62q10.26-6.22,20.56-12.38A8.76,8.76,0,0,1,271.5,151.53ZM260,302.37l.63-1.13-34.52-33.56c0,.09-.17.22-.18.37q-1,11.22-1.94,22.45c-.1,1.18.48,1.73,1.61,2.05,4.24,1.19,8.45,2.46,12.66,3.72,4.92,1.47,9.82,3,14.75,4.42C255.35,301.35,257.71,301.82,260,302.37ZM182.33,205l.1.49c2.23.68,4.45,1.37,6.68,2,2.82.84,5.61,1.76,8.46,2.46,4.14,1,7.94,2.16,12.4-.42,7.17-4.14,15-7.2,22.49-10.76,1.72-.81,3.36-1.81,5-2.73a30.89,30.89,0,0,0-5-.06c-4.08-.06-8.18-.58-12.22-.27-5.53.44-11.24-.66-16.57,1.82a61.27,61.27,0,0,1-5.92,2.12Q190.08,202.39,182.33,205Zm30.54-60.2c9.74.6,19.11,2.31,29,2a22,22,0,0,0-.83-2.9c-2.19-4.75-4.46-9.46-6.64-14.21a7.74,7.74,0,0,1-.84-3c0-1.73-.7-2.43-2.33-2.34-3.1.18-6.21.29-9.3.64a2.86,2.86,0,0,0-1.9,1.55C217.64,132.47,215.37,138.4,212.87,144.83Zm29.28,63.47.75.38,24.71-18.34-2.51-1.41c-3.11-1.74-6.27-3.39-9.3-5.25-3.45-2.11-6.76-4.43-10.18-6.59a6.05,6.05,0,0,0-2-.45,5.89,5.89,0,0,0-.26,1.82c.79,4.58,1.73,9.14,2.46,13.73a12.05,12.05,0,0,1-.09,4.36c-.39,1.82-1.22,3.54-1.78,5.33C243.33,204,242.76,206.16,242.15,208.3ZM290,229l-.41.32,24.86,53.43a31.76,31.76,0,0,0-.55-6.28c-.71-4.78-1.39-9.56-2.1-14.33-.59-4-1.28-7.9-1.8-11.87s-.8-7.88-5-9.91c-.14-.07-.22-.24-.35-.34Zm-28.4-103.09c-1.18,3.8-2.22,7.05-3.2,10.33-.31,1-.49,2,.92,2.59,5.43,2.45,10.77,5.1,16.22,7.52a14.22,14.22,0,0,0,4.72,1.05c3.66.26,7.34.34,11,.46,1.58.05,3.17,0,4.75,0l.1-.61ZM266,300.48c1.23-7.88,2.44-15.6,3.63-23.32a16.49,16.49,0,0,0,.43-4.6,5.46,5.46,0,0,0-1.84-3.46c-4.32-2.93-8.81-5.61-13.27-8.32-1.41-.86-2.93-1.53-4.87-2.53ZM261.14,116.3l-.38-.39-23.44,12.72,8.31,17.62c3.07-2.82,5.91-5.38,8.67-8a4.19,4.19,0,0,0,.77-1.77q2-6.41,3.92-12.84C259.72,121.19,260.42,118.74,261.14,116.3Zm-19.39,99.42a17.66,17.66,0,0,0,.69,1.92c1.66,3.18,3.35,6.35,5,9.53,1,2,2.07,3.9,3.06,5.88a1.87,1.87,0,0,0,2.62,1.06l2.51-1c3-1.18,5.86-2.45,8.85-3.52,4.3-1.56,8.65-3,13-4.47a4.61,4.61,0,0,0,1.09-.81v-.58Zm-3.4-65.36a6.49,6.49,0,0,0-1.12-.4c-5.19-.47-10.38-1-15.59-1.36-4-.27-8.07-.88-12-.33-5,.71-9.83,2.43-14.73,3.73-.07,0-.08.26-.19.69,6.38,2.64,12.78,5.32,19.22,7.91a3.26,3.26,0,0,0,2.3-.07c5.87-2.67,11.7-5.43,17.55-8.16C235.2,151.73,236.59,151.14,238.35,150.36ZM283,341.21l.31.74c4.1.17,8.21.39,12.32.46.43,0,1.06-.75,1.28-1.28.71-1.7,1.19-3.5,1.91-5.19,2.08-4.93,4.28-9.81,6.34-14.74s4-9.84,5.92-14.77c.32-.79.54-1.61.81-2.42l-.53-.25Q297.13,322.48,283,341.21ZM237.24,125.05l23.74-13-18.19-10.67C238.51,108.76,235,116.05,237.24,125.05Zm-40.13,88.3V213c-.39-.12-.77-.25-1.15-.35-6.53-1.82-13.05-3.67-19.59-5.43a6.66,6.66,0,0,0-2.66.1c-3.39.52-6.77,1.15-10.16,1.65-2.95.43-5.91.75-9.45,1.19.86,1.43,1.22,2.63,2,3.24,1.86,1.42,4.11,2.37,5.89,3.87,2,1.7,4,1.4,6.17.73a13.38,13.38,0,0,1,1.7-.22c3.79-.58,7.59-1.15,11.38-1.75,2.49-.4,5-.84,7.46-1.26ZM261.35,324.2l-.84-.21q-9.3,22.71-18.61,45.41l.36.43c2.93-1.15,5.85-2.33,8.79-3.46a3.57,3.57,0,0,0,2.22-3q1.89-9.22,3.87-18.43c1-4.7,2.07-9.39,3.05-14.1C260.65,328.66,261,326.43,261.35,324.2Zm-37.44-18-.62,0c-.1,1.11-.21,2.22-.3,3.33-.44,5.1-.88,10.21-1.29,15.32-.34,4.17-.38,8.15,1.94,12.05,2.53,4.25,4.32,8.93,6.44,13.41l3.78,8.05,1-.31C231.3,340.71,227.53,323.46,223.91,306.18Zm-4.68,18c1.1-17.08,2.18-33.77,3.26-50.46l-.58-.1c-.55,1.59-1,3.21-1.67,4.77-2.17,5.29-4.34,10.59-6.64,15.83a10,10,0,0,0-.06,8.09,16.9,16.9,0,0,1,.66,2.09C215.86,310.89,217.5,317.37,219.23,324.2Zm-5.47-113.08.18.53a4.74,4.74,0,0,0,.7.17c7,.07,14.06.11,21.09.21a2.3,2.3,0,0,0,2.46-1.9c1.08-3.41,2.18-6.82,3.23-10.24a15.68,15.68,0,0,0,.3-2.24ZM277.49,332l.18-.16-5.88-51.64c-.43,2.71-.79,4.94-1.13,7.17-.64,4.27-1.08,8.58-2,12.8a15.34,15.34,0,0,0,.65,9.74c1.49,3.41,2.69,6.94,4,10.44C274.73,324.18,276.1,328.08,277.49,332ZM186.1,169.42c4.77-1.71,9.78-1.68,13.31-3.76a46.16,46.16,0,0,1,.44-5.6c.28-1.33-.42-1.82-1.3-2.28-1.88-1-3.78-1.9-5.67-2.84-1.36-.68-2.43-.44-2.88,1.09C188.7,160.38,187.46,164.74,186.1,169.42ZM210.31,339l.48.13c2-1.9,3.91-3.91,6-5.66a3.12,3.12,0,0,0,1.12-3.65c-1.51-5.78-3-11.57-4.49-17.34-.35-1.32-.91-2.58-1.5-4.19Zm10.32-230.54c4.37,1,8.31,2,12.29,2.85,1.64.33,2.56-1.14,1.76-2.67a20.73,20.73,0,0,0-1.48-1.94c-1.4-2-2.8-4-4.13-6-1.16-1.77-2.23-3.61-3.34-5.42l-.61.12C223.65,99.69,222.18,103.94,220.63,108.46ZM256.14,92l-.79-.39-10.43,7.19,15.83,9.44.4-.3ZM226.79,258.31c.3-.12.77-.15.87-.48.83-3,2.08-5.8,4.78-7.28,4.74-2.62,4.41-3.73,3-4.89-1.9-1.55-3.74-3.15-5.63-4.7-.79-.65-1.64-1.22-2.47-1.82l-.55.28Zm-82.23-57.88a5.29,5.29,0,0,0,1,1.34c1.4,1.12,2.87,2.17,4.35,3.18s2.11.9,2.84-1c.82-2.09,1.76-4.15,2.41-6.29.29-1,.4-2.76-.08-3-1.64-1-2.89-3.15-5.33-2.25C145.84,193.88,144.48,195.84,144.56,200.43Zm52.23-53.11.39.76c3.14-.76,6.25-1.58,9.41-2.24,2.49-.52,3.63-2.16,4.36-4.39s1.66-4.22,2.4-6.37c.46-1.33.72-2.74,1.07-4.11l-.39-.15Zm142.54,35.89-.83.41,6.64,21.89c2-1.16,3.43-2,4.91-2.87,1.3-.71,1.44-1.51.6-2.76-2.92-4.32-5.73-8.71-8.61-13C341.2,185.58,340.23,184.41,339.33,183.21ZM233.41,121l-.25-.81a11.24,11.24,0,0,0,.45-3.2c-.12-.91-.7-2.33-1.34-2.5-3.73-1-7.53-1.67-11.81-2.57.83,3,1.42,5.43,2.25,7.8.25.69,1.17,1.61,1.79,1.62C227.47,121.34,230.44,121.1,233.41,121Zm48.76,12.93-.43.64c1.86,1.24,3.68,2.52,5.58,3.69,4.08,2.53,8.26,4.91,12.27,7.53,3.05,2,5,1.68,7.31-1.88ZM269.25,147.4l.07-.32c-4-1.89-8-3.8-12.06-5.64a1.74,1.74,0,0,0-1.5.28c-2,1.68-3.94,3.46-5.9,5.21l.18.47Zm-101,36-.63-.77-13.69,7.5,4,2.29Zm41.7-20.92-4-1.62c-.38-.15-.82-.47-1.13-.38-.73.22-1.85.49-2,1a2.25,2.25,0,0,0,2.94,2.75C207,163.78,208.25,163.18,209.94,162.46Z"/><path class="cls-3" d="M148.69,205.78c-2.53-1-7.23-8.23-3.2-11.88s10.39-2.63,9.9,2.87a16.14,16.14,0,0,1-.86,3.68c-.6,1.44-1,5.38-2.13,6.33S150.27,206.43,148.69,205.78Z"/><path class="cls-3" d="M204.59,160.15c-1.28.1-2.6,1-2.64,2.12-.1,3.26,4.4,2.56,6.54,1.59,1.12-.51,1.62-1.4,2.9-1.49-.83.06-1.86-1.24-2.57-1.56A9.33,9.33,0,0,0,204.59,160.15Z"/></g></g></svg>